<svg xmlns="http://www.w3.org/2000/svg" width="194.219" height="414.813" viewBox="0 0 194.219 414.813">
  <metadata><?xpacket begin="﻿" id="W5M0MpCehiHzreSzNTczkc9d"?>
<x:xmpmeta xmlns:x="adobe:ns:meta/" x:xmptk="Adobe XMP Core 5.6-c142 79.160924, 2017/07/13-01:06:39        ">
   <rdf:RDF xmlns:rdf="http://www.w3.org/1999/02/22-rdf-syntax-ns#">
      <rdf:Description rdf:about=""/>
   </rdf:RDF>
</x:xmpmeta>
                                                                                                    
                                                                                                    
                                                                                                    
                                                                                                    
                                                                                                    
                                                                                                    
                                                                                                    
                                                                                                    
                                                                                                    
                                                                                                    
                                                                                                    
                                                                                                    
                                                                                                    
                                                                                                    
                                                                                                    
                                                                                                    
                                                                                                    
                                                                                                    
                                                                                                    
                                                                                                    
                           
<?xpacket end="w"?></metadata>
<defs>
    <style>
      .cls-1 {
        fill: #fff;
        fill-rule: evenodd;
      }
    </style>
  </defs>
  <path id="gear_2" data-name="gear 2" class="cls-1" d="M362.3,249.514H331a157.3,157.3,0,0,1-12.456,32.428l21.951,23.508a29.214,29.214,0,0,1,0,39.315l-18.354,19.656a24.762,24.762,0,0,1-36.711,0l-21.952-23.509a136.043,136.043,0,0,1-30.282,13.341V387.78c0,15.273-11.56,27.653-25.823,27.653H181.547c-14.262,0-25.823-12.38-25.823-27.653V354.253a136.049,136.049,0,0,1-31.287-14l-22.563,24.163a24.76,24.76,0,0,1-36.71,0L46.808,344.765a29.215,29.215,0,0,1,0-39.315l22.958-24.585A157.572,157.572,0,0,1,57.92,249.514H26.613C12.35,249.514.79,237.132,0.79,221.86V194.206c0-15.273,11.561-27.652,25.823-27.652H57.92a157.366,157.366,0,0,1,12.457-32.431L46.808,108.885a29.213,29.213,0,0,1,0-39.314L65.164,49.915a24.759,24.759,0,0,1,36.71,0l23.568,25.24a136.033,136.033,0,0,1,30.282-13.342V28.287c0-15.273,11.561-27.654,25.823-27.654h25.822c14.263,0,25.823,12.381,25.823,27.654V61.813A135.976,135.976,0,0,1,262.468,74.5l22.958-24.586a24.76,24.76,0,0,1,36.711,0l18.354,19.656a29.213,29.213,0,0,1,0,39.314l-22.563,24.162A157.046,157.046,0,0,1,331,166.554H362.3c14.263,0,25.823,12.379,25.823,27.652V221.86C388.127,237.132,376.567,249.514,362.3,249.514ZM194.458,125.073c42.785,0,77.467,37.143,77.467,82.961s-34.682,82.959-77.467,82.959-77.468-37.142-77.468-82.959S151.673,125.073,194.458,125.073Zm0,41.481c21.393,0,38.734,18.571,38.734,41.48s-17.341,41.48-38.734,41.48-38.734-18.573-38.734-41.48S173.066,166.554,194.458,166.554Z" transform="translate(-0.781 -0.625)"/>
</svg>
