<svg xmlns="http://www.w3.org/2000/svg" viewBox="0 0 96.63 68.69"><defs><style>.cls-1{fill:#565555;}.cls-2{fill:#3c4749;}</style></defs><title>menu_1</title><g id="Warstwa_2" data-name="Warstwa 2"><g id="Warstwa_1-2" data-name="Warstwa 1"><line class="cls-1" x1="5.8" y1="6" x2="90.84" y2="6"/><path class="cls-2" d="M5.8,12h85c7.72,0,7.73-12,0-12H5.8c-7.73,0-7.74,12,0,12Z"/><line class="cls-1" x1="5.8" y1="34.35" x2="90.84" y2="34.35"/><path class="cls-2" d="M5.8,40.35h85c7.72,0,7.73-12,0-12H5.8c-7.73,0-7.74,12,0,12Z"/><line class="cls-1" x1="5.8" y1="62.69" x2="90.84" y2="62.69"/><path class="cls-2" d="M5.8,68.69h85c7.72,0,7.73-12,0-12H5.8c-7.73,0-7.74,12,0,12Z"/></g></g></svg>